<svg xmlns="http://www.w3.org/2000/svg" width="1920" height="1080" viewBox="0 0 1920 1080" preserveAspectRatio="xMidYMid slice">
  <defs>
    <radialGradient id="sky" cx="50%" cy="30%" r="75%">
      <stop offset="0%" stop-color="#0b1a3a" />
      <stop offset="100%" stop-color="#060c1d" />
    </radialGradient>
    <linearGradient id="trail" x1="0%" y1="0%" x2="100%" y2="100%">
      <stop offset="0%" stop-color="#ffffff" stop-opacity="0.9" />
      <stop offset="100%" stop-color="#ffffff" stop-opacity="0" />
    </linearGradient>
  </defs>
  <rect width="1920" height="1080" fill="url(#sky)" />
  <g opacity="0.85">
    <circle cx="240" cy="180" r="1.8" fill="#ffffff" />
    <circle cx="380" cy="120" r="1.4" fill="#f5f8ff" />
    <circle cx="520" cy="250" r="2.2" fill="#ffffff" />
    <circle cx="760" cy="96" r="1.2" fill="#e2e9ff" />
    <circle cx="1120" cy="196" r="1.6" fill="#d7e0ff" />
    <circle cx="1500" cy="140" r="1.8" fill="#ffffff" />
    <circle cx="1740" cy="280" r="1.3" fill="#f9fbff" />
    <circle cx="220" cy="420" r="1.6" fill="#f5f8ff" />
    <circle cx="420" cy="520" r="1.2" fill="#ffffff" />
    <circle cx="680" cy="470" r="1.7" fill="#e6ecff" />
    <circle cx="920" cy="340" r="2.4" fill="#ffffff" />
    <circle cx="1260" cy="470" r="1.4" fill="#f7fbff" />
    <circle cx="1630" cy="540" r="1.9" fill="#ffffff" />
    <circle cx="1780" cy="380" r="1.6" fill="#dfe6ff" />
    <circle cx="1510" cy="680" r="1.2" fill="#e9efff" />
    <circle cx="1180" cy="760" r="1.8" fill="#ffffff" />
    <circle cx="860" cy="780" r="1.1" fill="#f5f8ff" />
    <circle cx="540" cy="720" r="1.5" fill="#e0e8ff" />
    <circle cx="340" cy="860" r="1.9" fill="#ffffff" />
    <circle cx="1080" cy="900" r="1.4" fill="#f8fbff" />
    <circle cx="1520" cy="820" r="1.2" fill="#dfe6ff" />
  </g>
  <g opacity="0.85">
    <path d="M 240 220 L 320 160" stroke="url(#trail)" stroke-width="4" stroke-linecap="round" />
    <circle cx="240" cy="220" r="3.2" fill="#fcfbff" opacity="0.95" />
    <path d="M 1000 280 L 1100 220" stroke="url(#trail)" stroke-width="4" stroke-linecap="round" />
    <circle cx="1000" cy="280" r="3" fill="#f7faff" opacity="0.95" />
    <path d="M 1480 340 L 1560 280" stroke="url(#trail)" stroke-width="4" stroke-linecap="round" />
    <circle cx="1480" cy="340" r="3.4" fill="#ffffff" opacity="0.95" />
    <path d="M 640 620 L 740 560" stroke="url(#trail)" stroke-width="4" stroke-linecap="round" />
    <circle cx="640" cy="620" r="2.8" fill="#f7faff" opacity="0.95" />
  </g>
  <g opacity="0.7">
    <circle cx="120" cy="920" r="0.8" fill="#ffffff" />
    <circle cx="440" cy="980" r="0.9" fill="#e8efff" />
    <circle cx="630" cy="860" r="1.1" fill="#f5f8ff" />
    <circle cx="860" cy="940" r="0.9" fill="#ffffff" />
    <circle cx="1220" cy="1000" r="1.2" fill="#dfe6ff" />
    <circle cx="1680" cy="860" r="1.3" fill="#ffffff" />
  </g>
</svg>
